<svg width="84" height="84" viewBox="0 0 84 84" fill="none" xmlns="http://www.w3.org/2000/svg">
<g clip-path="url(#clip0_7_5132)">
<path d="M41.9999 44.0426C45.3516 44.0426 48.0783 41.3155 48.0783 37.9644C48.0783 34.6126 45.3516 31.8864 41.9999 31.8864C38.6481 31.8864 35.9219 34.6128 35.9219 37.9644C35.9219 41.3155 38.6481 44.0424 41.9999 44.0424V44.0426ZM41.9999 34.3473C43.9948 34.3473 45.6174 35.9701 45.6174 37.9644C45.6174 39.9587 43.9948 41.5816 41.9999 41.5816C40.0055 41.5816 38.3823 39.9591 38.3823 37.9646C38.3823 35.9701 40.0049 34.3475 41.9999 34.3475V34.3473ZM66.6572 10.0719C66.6572 12.5681 68.6881 14.599 71.185 14.599C73.681 14.599 75.7126 12.5681 75.7126 10.0721C75.7126 7.57507 73.681 5.54431 71.185 5.54431C68.688 5.54431 66.6572 7.57507 66.6572 10.0719ZM73.2517 10.0719C73.2517 11.2115 72.3244 12.1381 71.185 12.1381C70.0456 12.1381 69.1181 11.2115 69.1181 10.0721C69.1181 8.93268 70.0454 8.00524 71.185 8.00524C72.3245 8.00524 73.2517 8.9317 73.2517 10.0719ZM12.8149 14.599C15.3116 14.599 17.3425 12.5681 17.3425 10.0721C17.3425 7.57507 15.3116 5.54431 12.8147 5.54431C10.3187 5.54431 8.28711 7.57523 8.28711 10.0714C8.28711 12.5681 10.3189 14.599 12.8149 14.599ZM12.8149 8.00524C13.9543 8.00524 14.8816 8.93186 14.8816 10.0714C14.8816 11.2108 13.9543 12.1381 12.8147 12.1381C11.6752 12.1381 10.748 11.2108 10.748 10.0714C10.748 8.93186 11.6755 8.00524 12.8149 8.00524Z" fill="#114F93"/>
<path d="M71.1848 58.3651C68.0453 58.3651 65.1678 59.5021 62.9376 61.3822L55.6913 54.0688C58.5348 50.8478 60.2632 46.6206 60.2632 41.9967C60.2632 37.4344 58.5816 33.2571 55.8053 30.0536L63.1453 22.7829C65.3453 24.5607 68.1421 25.6284 71.185 25.6284C76.1337 25.6284 80.6902 22.7324 82.793 18.25C82.9314 17.9545 82.9469 17.6161 82.836 17.3092C82.725 17.0023 82.4968 16.752 82.2014 16.6134C81.9059 16.4749 81.5675 16.4594 81.2606 16.5703C80.9537 16.6812 80.7034 16.9094 80.5647 17.2048C79.7559 18.9301 78.4959 20.3636 76.9668 21.393C76.3157 17.8796 74.0086 15.3514 71.185 15.3514C68.3598 15.3514 66.0521 17.8822 65.4024 21.3981C62.6467 19.5363 60.831 16.3832 60.831 12.8143C60.831 7.10548 65.4761 2.46105 71.185 2.46105C76.8943 2.46105 81.5394 7.10548 81.5394 12.8142C81.5394 13.1405 81.669 13.4535 81.8998 13.6842C82.1305 13.915 82.4435 14.0446 82.7699 14.0446C83.0962 14.0446 83.4092 13.915 83.6399 13.6842C83.8707 13.4535 84.0003 13.1405 84.0003 12.8142C84.0003 5.74885 78.2509 0.00012207 71.1848 0.00012207C64.1191 0.00012207 58.3699 5.74885 58.3699 12.8142C58.3699 15.9532 59.5062 18.83 61.387 21.0609L54.073 28.3059C50.852 25.4624 46.6241 23.7346 41.9997 23.7346C38.2461 23.7346 34.6399 24.8645 31.5709 27.0031C31.0437 27.3706 30.536 27.7654 30.0501 28.1859L22.7846 20.8521C24.5624 18.652 25.6294 15.8559 25.6294 12.8142C25.6296 5.74885 19.8808 0.00012207 12.8147 0.00012207C5.74856 0.00012207 0 5.74885 0 12.8142C0 19.8798 5.74873 25.6277 12.8149 25.6277C15.9544 25.6277 18.8318 24.4914 21.0628 22.6106L28.3012 29.9176C26.8772 31.5283 25.7498 33.3785 24.9714 35.3825C24.9128 35.5331 24.8845 35.6938 24.8881 35.8553C24.8916 36.0168 24.9269 36.1761 24.992 36.3239C25.0571 36.4718 25.1507 36.6054 25.2675 36.7171C25.3842 36.8288 25.5218 36.9164 25.6724 36.9749C25.823 37.0335 25.9837 37.0618 26.1452 37.0583C26.3067 37.0547 26.466 37.0194 26.6139 36.9543C26.7618 36.8892 26.8954 36.7956 27.0071 36.6789C27.1188 36.5621 27.2064 36.4245 27.2649 36.2739C28.0636 34.2174 29.2855 32.3516 30.8513 30.7975C30.8604 30.7886 30.8705 30.7811 30.8796 30.7721C30.8866 30.7655 30.8924 30.7579 30.8992 30.7507C31.5416 30.1168 32.2368 29.5386 32.9771 29.0223C35.6316 27.1729 38.7521 26.1956 41.9998 26.1956C50.7136 26.1956 57.8029 33.2842 57.8029 41.9967C57.8029 47.7671 54.6935 52.8243 50.062 55.5826C49.7813 53.41 49.0514 51.4015 47.9356 49.7878C46.3841 47.5428 44.2762 46.3066 41.9998 46.3066C39.7241 46.3066 37.6163 47.5428 36.0647 49.7878C34.9491 51.4015 34.219 53.41 33.9385 55.5825C29.3069 52.8243 26.1974 47.7671 26.1974 41.9967C26.1974 41.3175 25.6461 40.7662 24.9669 40.7662C24.2877 40.7662 23.7365 41.3175 23.7365 41.9967C23.7365 46.5592 25.4181 50.7363 28.1944 53.9405L20.8544 61.2113C18.6543 59.4335 15.8576 58.3658 12.8154 58.3658C5.74873 58.3651 0 64.1137 0 71.1792C0 71.8586 0.551248 72.4096 1.23046 72.4096C1.90968 72.4096 2.46093 71.8586 2.46093 71.1792C2.46093 65.4705 7.10535 60.8261 12.8149 60.8261C18.5244 60.8261 23.1686 65.4705 23.1686 71.1792C23.1686 74.7482 21.3536 77.9013 18.5972 79.7637C17.9475 76.2479 15.6397 73.7164 12.8147 73.7164C9.99055 73.7164 7.68334 76.2466 7.03284 79.7617C5.46917 78.7088 4.18866 77.2329 3.38 75.4513C3.31331 75.3042 3.21827 75.1716 3.10031 75.0612C2.98236 74.9508 2.84381 74.8648 2.69257 74.8079C2.54134 74.7511 2.38039 74.7246 2.21892 74.73C2.05745 74.7354 1.89862 74.7726 1.75152 74.8394C1.60439 74.9061 1.47185 75.0011 1.36146 75.1191C1.25107 75.237 1.165 75.3755 1.10817 75.5268C1.05134 75.678 1.02486 75.8389 1.03025 76.0004C1.03564 76.1618 1.07279 76.3206 1.13957 76.4677C3.21332 81.0396 7.79622 83.9932 12.8147 83.9932C19.8808 83.9932 25.6296 78.2448 25.6296 71.1792C25.6296 68.0404 24.4933 65.1634 22.613 62.9326L29.9272 55.6876C33.1482 58.5312 37.3754 60.2589 41.9998 60.2589C46.5629 60.2589 50.7399 58.5773 53.9444 55.8017L61.2156 63.1408C59.4378 65.3409 58.3701 68.1371 58.3701 71.1792C58.3701 78.2448 64.1188 83.9934 71.185 83.9934C78.2511 83.9934 83.9997 78.2445 83.9997 71.1792C83.9997 64.1137 78.2509 58.3651 71.1848 58.3651ZM2.46093 12.8142C2.46093 7.10564 7.10535 2.46105 12.8149 2.46105C18.5244 2.46105 23.1686 7.10548 23.1686 12.8142C23.1686 15.5412 22.1073 18.0231 20.3783 19.8741C20.3199 19.9151 20.2643 19.9599 20.2123 20.0119C20.1527 20.0714 20.0994 20.1369 20.0533 20.2073C19.6051 20.6476 19.1177 21.0461 18.5972 21.3981C17.9475 17.8829 15.6397 15.3514 12.8149 15.3514C9.99005 15.3514 7.6822 17.8822 7.03235 21.3981C4.27644 19.5363 2.46093 16.383 2.46093 12.8142ZM9.35284 22.5701C9.62075 19.9156 11.0973 17.8123 12.8147 17.8123C14.5321 17.8123 16.009 19.9156 16.2767 22.5701C15.1936 22.9553 14.0286 23.1673 12.8147 23.1673C11.6008 23.1673 10.4365 22.9553 9.35284 22.5701ZM71.185 17.8123C72.901 17.8123 74.3771 19.9131 74.6462 22.5652C73.5354 22.9627 72.3647 23.1663 71.185 23.1673C70.0053 23.1677 68.8343 22.9657 67.7229 22.5701C67.9908 19.9156 69.4674 17.8123 71.185 17.8123ZM9.35317 80.9327C9.62173 78.2794 11.0978 76.1773 12.8145 76.1773C14.5323 76.1773 16.0088 78.2806 16.2766 80.9351C15.1652 81.3307 13.9942 81.5327 12.8145 81.5323C11.635 81.5318 10.4643 81.329 9.35333 80.9327H9.35317ZM36.2969 56.7327C36.593 52.3331 39.0841 48.7667 42 48.7667C44.9159 48.7667 47.4075 52.3331 47.7031 56.7327C45.9329 57.4203 44.0104 57.7978 42 57.7978C39.9902 57.7978 38.0669 57.4205 36.2969 56.7327ZM67.7231 80.9351C67.991 78.2806 69.4676 76.1773 71.1851 76.1773C72.9027 76.1773 74.3791 78.2806 74.647 80.9351C73.5634 81.3202 72.3988 81.5323 71.1851 81.5323C69.9714 81.5323 68.8062 81.3207 67.7231 80.9351ZM76.9676 79.7635C76.3178 76.2477 74.0099 73.7162 71.1851 73.7162C68.3603 73.7162 66.0523 76.2477 65.4026 79.7635C62.6462 77.9011 60.8312 74.7482 60.8312 71.179C60.8312 65.4703 65.4756 60.8259 71.1851 60.8259C76.8946 60.8259 81.5396 65.4703 81.5396 71.179C81.5389 74.748 79.7234 77.9011 76.9676 79.7635Z" fill="#114F93"/>
<path d="M71.1848 63.9093C68.6881 63.9093 66.6572 65.9402 66.6572 68.437C66.6572 70.9331 68.6881 72.964 71.1849 72.964C73.681 72.964 75.7125 70.9331 75.7125 68.437C75.7125 65.94 73.6808 63.9093 71.1848 63.9093ZM71.1848 70.5031C70.0454 70.5031 69.1181 69.5765 69.1181 68.437C69.1181 67.2968 70.0454 66.3702 71.1849 66.3702C72.3245 66.3702 73.2516 67.2968 73.2516 68.437C73.2516 69.5765 72.3242 70.5031 71.1848 70.5031ZM12.8148 72.964C15.3115 72.964 17.3425 70.9331 17.3425 68.437C17.3425 65.94 15.3115 63.9093 12.8147 63.9093C10.3186 63.9093 8.28707 65.9402 8.28707 68.437C8.28707 70.9331 10.3188 72.964 12.8148 72.964ZM12.8148 66.3702C13.9543 66.3702 14.8815 67.2975 14.8815 68.437C14.8815 69.5766 13.9543 70.5037 12.8147 70.5037C11.6751 70.5037 10.748 69.5765 10.748 68.437C10.748 67.2976 11.6754 66.3702 12.8148 66.3702ZM11.9374 32.7529H10.5518C10.2282 32.7529 10.0666 32.9144 10.0666 33.2374V35.0618H9.90521C8.71953 35.0618 7.79931 35.3887 7.14503 36.043C6.49059 36.6981 6.16394 37.6331 6.16394 38.8488V39.7031C6.16394 41.3199 6.59444 42.405 7.45708 42.9594C7.87232 43.2368 8.28001 43.4329 8.68049 43.5484C9.08047 43.6637 9.68536 43.7603 10.4934 43.8373C11.3017 43.9142 11.8444 43.9833 12.122 44.045C12.4296 44.1219 12.6995 44.2681 12.93 44.4834C13.1609 44.6993 13.2762 44.9992 13.2762 45.3844V45.7306C13.2762 46.3617 13.1569 46.793 12.9185 47.0237C12.6795 47.2544 12.2603 47.3704 11.6598 47.3704H10.7359C10.12 47.3704 9.69685 47.2627 9.46618 47.0468C9.23485 46.8314 9.11951 46.4316 9.11951 45.8459V45.6843C9.11951 45.3612 8.95808 45.1992 8.63438 45.1992H6.67204C6.34835 45.1992 6.18691 45.3612 6.18691 45.6843V46.1233C6.18691 47.3088 6.51372 48.2363 7.16866 48.9058C7.82244 49.575 8.73495 49.9102 9.90521 49.9102H10.0666V51.6886C10.0666 52.0115 10.2282 52.1731 10.5518 52.1731H11.9374C12.261 52.1731 12.4226 52.0115 12.4226 51.6886V49.9102H12.4687C13.6237 49.9102 14.5362 49.5794 15.2052 48.9176C15.8756 48.2555 16.2101 47.3236 16.2101 46.1227V45.2453C16.2101 43.7367 15.8018 42.6902 14.986 42.1045C14.5861 41.8275 14.1816 41.6238 13.7741 41.493C13.3659 41.3622 12.7578 41.2617 11.9496 41.1924C11.1408 41.1232 10.5672 41.0579 10.2289 40.9964C9.93935 40.9365 9.66927 40.8055 9.44304 40.6151C9.21237 40.4228 9.09704 40.1574 9.09704 39.8184V39.3571C9.09704 38.6642 9.2086 38.199 9.43222 37.9599C9.65534 37.7215 10.0821 37.6016 10.714 37.6016H11.453C12.0841 37.6016 12.5117 37.7099 12.7346 37.9253C12.9576 38.1407 13.0693 38.5412 13.0693 39.1262V39.2878C13.0693 39.6109 13.2312 39.7723 13.5543 39.7723H15.5173C15.841 39.7723 16.0024 39.6109 16.0024 39.2878V38.8488C16.0024 37.6792 15.6871 36.7557 15.0558 36.0778C14.424 35.4009 13.562 35.0619 12.4693 35.0619H12.4232V33.2374C12.4226 32.9144 12.261 32.7529 11.9374 32.7529ZM71.8994 52.1731H73.2849C73.6086 52.1731 73.7701 52.0115 73.7701 51.6886V49.9102H73.8163C74.9712 49.9102 75.8837 49.5794 76.5534 48.9176C77.2231 48.2555 77.5576 47.3236 77.5576 46.1227V45.2453C77.5576 43.7367 77.1494 42.6902 76.3342 42.1045C75.9337 41.8275 75.5293 41.6238 75.1218 41.493C74.7134 41.3622 74.1052 41.2617 73.2972 41.1924C72.4884 41.1232 71.9148 41.0579 71.5764 40.9964C71.2871 40.9365 71.0173 40.8055 70.7914 40.6151C70.5607 40.4228 70.4447 40.1574 70.4447 39.8184V39.3571C70.4447 38.6642 70.5569 38.199 70.7799 37.9599C71.003 37.7215 71.4304 37.6016 72.0615 37.6016H72.8005C73.4318 37.6016 73.8591 37.7099 74.0823 37.9253C74.3054 38.1407 74.4174 38.5412 74.4174 39.1262V39.2878C74.4174 39.6107 74.5789 39.7723 74.9026 39.7723H76.8656C77.1885 39.7723 77.3507 39.6107 77.3507 39.2878V38.8488C77.3507 37.6792 77.0347 36.7557 76.4034 36.0778C75.7723 35.4009 74.9096 35.0619 73.817 35.0619H73.7707V33.2374C73.7707 32.9144 73.6093 32.7529 73.2856 32.7529H71.9001C71.5764 32.7529 71.4149 32.9144 71.4149 33.2374V35.0618H71.2535C70.0678 35.0618 69.1476 35.3887 68.4932 36.043C67.8389 36.6981 67.5121 37.6331 67.5121 38.8488V39.7031C67.5121 41.3199 67.9427 42.405 68.8054 42.9594C69.2206 43.2368 69.6282 43.4329 70.0293 43.5484C70.4293 43.6637 71.0337 43.7603 71.8418 43.8373C72.6507 43.9142 73.1927 43.9833 73.4702 44.045C73.7778 44.1219 74.0477 44.2681 74.2783 44.4834C74.509 44.6993 74.625 44.9992 74.625 45.3844V45.7306C74.625 46.3617 74.5052 46.793 74.2668 47.0237C74.0278 47.2544 73.6086 47.3704 73.0082 47.3704H72.084C71.4681 47.3704 71.0452 47.2627 70.8145 47.0468C70.5832 46.8314 70.4678 46.4316 70.4678 45.8459V45.6843C70.4678 45.3612 70.3062 45.1992 69.9827 45.1992H68.0197C67.6965 45.1992 67.5346 45.3612 67.5346 45.6843V46.1233C67.5346 47.3088 67.8614 48.2363 68.5163 48.9058C69.1699 49.575 70.0826 49.9102 71.2529 49.9102H71.4143V51.6886C71.4143 52.0115 71.5757 52.1731 71.8994 52.1731Z" fill="#114F93"/>
</g>
<defs>
<clipPath id="clip0_7_5132">
<rect width="84" height="84" fill="white"/>
</clipPath>
</defs>
</svg>
