<svg width="84" height="84" viewBox="0 0 84 84" fill="none" xmlns="http://www.w3.org/2000/svg">
<path d="M41.4981 52.5485C43.6352 50.7234 44.2404 47.5719 42.7856 45.0524C41.3316 42.5338 38.3013 41.482 35.6502 42.42L31.1774 34.6728C30.5138 33.5235 29.3253 32.8328 27.9982 32.8253H27.9765C26.6581 32.8253 25.4711 33.5012 24.7983 34.6367C24.2886 35.4969 23.7824 36.3736 23.2466 37.3021C20.4238 42.1921 17.2275 47.7295 12.9097 51.607L5.88601 55.662C1.51227 58.1872 0.00814712 63.8 2.5334 68.1737C3.75238 70.285 5.72835 71.7973 8.09741 72.4323C8.87986 72.6428 9.68655 72.7498 10.4968 72.7504C12.0813 72.7504 13.6422 72.3366 15.0455 71.5265L16.0078 70.9708L20.3553 78.5008C21.1049 79.7992 22.3182 80.7287 23.7715 81.1181C24.2508 81.247 24.7449 81.3125 25.2413 81.313C26.215 81.313 27.1749 81.0582 28.0386 80.5596L29.3456 79.8049C29.6471 79.6308 29.867 79.3442 29.9571 79.0079C30.0472 78.6717 30.0001 78.3135 29.826 78.012L23.463 66.9906C29.5737 65.0591 35.8945 65.1246 42.3622 65.3904C43.7277 65.4486 44.9673 64.7815 45.6754 63.6111C46.3834 62.4409 46.3978 61.035 45.714 59.8508L41.4981 52.5485ZM40.5124 46.3649C40.7318 46.7425 40.8741 47.1599 40.9311 47.5928C40.9881 48.0258 40.9586 48.4658 40.8445 48.8873C40.714 49.3735 40.4744 49.8234 40.1437 50.2029L37.0047 44.7662C38.3571 44.5069 39.7864 45.1073 40.5124 46.3649ZM13.733 69.2529C12.7435 69.8259 11.6202 70.1275 10.4768 70.127C8.21685 70.1269 6.01562 68.9548 4.80681 66.861C3.0054 63.7407 4.07837 59.7366 7.19868 57.935L13.2029 54.4687L19.737 65.7864L13.733 69.2529ZM26.7262 78.286C26.0352 78.6852 25.2272 78.7902 24.451 78.5825C23.675 78.3744 23.0278 77.8793 22.6288 77.1881L18.2813 69.658L21.0495 68.0597L26.8967 78.1876L26.7262 78.286ZM22.1216 64.667L15.3441 52.9277C18.99 49.4373 21.7996 44.9874 24.2691 40.7707L36.8882 62.6279C31.9071 62.6203 26.994 63.0323 22.1216 64.667ZM43.4294 62.2523C43.2152 62.6064 42.8838 62.7834 42.4698 62.7675C41.627 62.7329 40.7867 62.7019 39.9482 62.6776L25.7876 38.1509C26.2066 37.4232 26.6296 36.6979 27.0566 35.9749C27.2601 35.6316 27.5779 35.4503 27.976 35.4503H27.9834C28.3851 35.4526 28.7035 35.6376 28.9041 35.9853L43.4406 61.1631C43.6476 61.5216 43.6437 61.8981 43.4294 62.2523ZM54.5099 31.1453C54.5099 37.9624 60.0562 43.5087 66.8733 43.5087C73.6904 43.5087 79.2367 37.9624 79.2367 31.1453C79.2367 24.3282 73.6904 18.782 66.8733 18.782C60.0562 18.782 54.5099 24.3282 54.5099 31.1453ZM60.6086 38.5931C61.2251 35.6621 63.8112 33.5242 66.8718 33.5235H66.8751C69.9357 33.5243 72.5218 35.6621 73.1384 38.5931C71.4436 40.0209 69.2578 40.8837 66.8735 40.8837C64.4891 40.8837 62.3033 40.0209 60.6086 38.5931ZM64.2842 28.3091C64.2842 26.8815 65.4458 25.7199 66.8735 25.7199C68.3013 25.7199 69.4629 26.8815 69.4629 28.3091C69.4629 29.7365 68.3018 30.8979 66.8746 30.8984H66.8725C65.4451 30.8979 64.2842 29.7366 64.2842 28.3091ZM66.8733 21.4069C72.2431 21.4069 76.6117 25.7753 76.6117 31.1451C76.6134 32.9626 76.1032 34.7438 75.1396 36.2849C74.2696 34.3053 72.7167 32.7047 70.7644 31.7753C71.5866 30.8532 72.0879 29.6387 72.0879 28.309C72.0879 25.4338 69.7487 23.0947 66.8735 23.0947C63.9983 23.0947 61.6592 25.4338 61.6592 28.309C61.6592 29.6387 62.1603 30.8531 62.9826 31.7753C61.0301 32.7045 59.477 34.3052 58.6072 36.2849C57.6435 34.7438 57.1334 32.9626 57.135 31.1451C57.1349 25.7755 61.5035 21.4069 66.8733 21.4069ZM70.324 44.9913C63.5069 44.9913 57.9606 50.5375 57.9606 57.3546C57.9606 64.1717 63.5069 69.718 70.324 69.718C77.1412 69.718 82.6874 64.1719 82.6874 57.3548C82.6874 50.5376 77.1412 44.9913 70.324 44.9913ZM70.324 47.6163C75.6938 47.6163 80.0624 51.9848 80.0624 57.3546C80.0641 59.1721 79.5539 60.9533 78.5903 62.4943C77.7203 60.5148 76.1674 58.9142 74.2151 57.9848C75.0374 57.0627 75.5384 55.8483 75.5384 54.5186C75.5384 51.6434 73.1994 49.3042 70.3242 49.3042C67.449 49.3042 65.11 51.6434 65.11 54.5186C65.11 55.8483 65.611 57.0627 66.4333 57.9848C64.4808 58.9141 62.9278 60.5147 62.0579 62.4943C61.0942 60.9533 60.5841 59.172 60.5858 57.3544C60.5856 51.985 64.9543 47.6163 70.324 47.6163ZM70.324 57.1078H70.3229C68.8957 57.1072 67.7346 55.9459 67.7346 54.5186C67.7346 53.0908 68.8962 51.9292 70.3239 51.9292C71.7515 51.9292 72.9131 53.0908 72.9131 54.5186C72.9131 55.9459 71.7522 57.1072 70.3248 57.1078H70.324ZM64.0591 64.8027C64.6757 61.8717 67.2618 59.7338 70.3224 59.733H70.3257C73.3863 59.7338 75.9722 61.8716 76.5888 64.8025C74.894 66.2304 72.7082 67.0932 70.3239 67.0932C67.9397 67.0932 65.7539 66.2304 64.0591 64.8027ZM45.9005 27.4158C52.7177 27.4158 58.264 21.8695 58.264 15.0524C58.264 8.23526 52.7177 2.68896 45.9005 2.68896C39.0834 2.68896 33.5371 8.23526 33.5371 15.0524C33.5371 21.8695 39.0834 27.4158 45.9005 27.4158ZM39.6358 22.5003C40.2525 19.5687 42.8395 17.4306 45.9007 17.4306C48.9619 17.4306 51.5489 19.5687 52.1654 22.5003C50.4707 23.9282 48.2849 24.791 45.9005 24.791C43.5162 24.7908 41.3304 23.9282 39.6358 22.5003ZM43.3113 12.2162C43.3113 10.7886 44.4729 9.627 45.9005 9.627C47.3284 9.627 48.4899 10.7886 48.4899 12.2162C48.4899 13.6439 47.3284 14.8055 45.9005 14.8055C44.4729 14.8056 43.3113 13.6441 43.3113 12.2162ZM45.9005 5.31396C51.2703 5.31396 55.639 9.68262 55.639 15.0524C55.6406 16.8699 55.1305 18.6511 54.1668 20.1921C53.2969 18.2126 51.7439 16.612 49.7916 15.6826C50.6139 14.7605 51.1151 13.546 51.1151 12.2162C51.1151 9.34104 48.7759 7.002 45.9007 7.002C43.0255 7.002 40.6865 9.34104 40.6865 12.2162C40.6865 13.546 41.1875 14.7605 42.0098 15.6826C40.0573 16.6119 38.5043 18.2126 37.6344 20.1923C36.6708 18.6512 36.1606 16.8699 36.1623 15.0524C36.1621 9.68262 40.5308 5.31396 45.9005 5.31396ZM44.4159 30.7661L41.4777 35.8553L41.6195 35.7979C41.9412 35.6725 42.2993 35.6789 42.6164 35.8158C42.9334 35.9526 43.1837 36.2088 43.3132 36.5289C43.4426 36.849 43.4407 37.2072 43.3079 37.5259C43.175 37.8446 42.922 38.0982 42.6035 38.2316L38.9266 39.7182C38.7417 39.793 38.5422 39.8247 38.3432 39.8108C38.1443 39.7969 37.9511 39.7379 37.7784 39.6381C37.6057 39.5384 37.4579 39.4006 37.3465 39.2353C37.235 39.0699 37.1627 38.8813 37.135 38.6838L36.5839 34.7561C36.56 34.5854 36.5699 34.4117 36.6131 34.2448C36.6563 34.078 36.7319 33.9213 36.8357 33.7836C36.9394 33.646 37.0693 33.5302 37.2178 33.4427C37.3663 33.3553 37.5307 33.2979 37.7013 33.274C37.872 33.25 38.0458 33.2599 38.2126 33.3031C38.3795 33.3463 38.5362 33.422 38.6738 33.5257C38.8115 33.6295 38.9273 33.7594 39.0148 33.9079C39.1022 34.0564 39.1595 34.2207 39.1835 34.3914L39.2048 34.543L42.143 29.4538C42.2292 29.3046 42.3439 29.1737 42.4806 29.0688C42.6173 28.9639 42.7734 28.887 42.9398 28.8424C43.1063 28.7978 43.2799 28.7864 43.4508 28.8089C43.6216 28.8314 43.7864 28.8873 43.9356 28.9735C44.0849 29.0597 44.2157 29.1744 44.3206 29.3111C44.4255 29.4478 44.5025 29.6039 44.5471 29.7703C44.5917 29.9368 44.603 30.1104 44.5805 30.2813C44.558 30.4521 44.5021 30.6169 44.4159 30.7661ZM57.8405 52.1479C57.8405 52.496 57.7022 52.8298 57.4561 53.076C57.2099 53.3221 56.8761 53.4604 56.528 53.4604H50.6516L50.7722 53.5546C50.9877 53.7228 51.1453 53.9542 51.223 54.2163C51.3006 54.4784 51.2945 54.7583 51.2054 55.0168C51.1164 55.2753 50.9488 55.4995 50.7261 55.6581C50.5034 55.8168 50.2368 55.9019 49.9634 55.9016C49.6709 55.9019 49.3867 55.804 49.1565 55.6236L46.0306 53.1825C45.8735 53.0597 45.7463 52.9028 45.6589 52.7235C45.5714 52.5443 45.526 52.3475 45.526 52.1481C45.526 51.9486 45.5714 51.7518 45.6589 51.5726C45.7463 51.3934 45.8735 51.2364 46.0306 51.1136L49.1565 48.6726C49.431 48.4601 49.7785 48.365 50.1229 48.4081C50.4673 48.4513 50.7807 48.6291 50.9943 48.9026C51.208 49.1762 51.3045 49.5233 51.2629 49.8679C51.2213 50.2125 51.0448 50.5266 50.7722 50.7414L50.6516 50.8356H56.528C56.7004 50.8355 56.871 50.8694 57.0303 50.9354C57.1895 51.0013 57.3342 51.098 57.4561 51.2198C57.578 51.3417 57.6747 51.4864 57.7406 51.6456C57.8066 51.8049 57.8405 51.9755 57.8405 52.1479ZM54.2431 39.953L49.1539 42.8912L49.3053 42.9123C49.65 42.9607 49.9614 43.144 50.171 43.422C50.3806 43.6999 50.4711 44.0497 50.4227 44.3945C50.3744 44.7392 50.1911 45.0506 49.9131 45.2602C49.6352 45.4697 49.2853 45.5603 48.9406 45.5119L45.013 44.9608C44.8155 44.9331 44.6269 44.8607 44.4616 44.7492C44.2962 44.6377 44.1585 44.4899 44.0588 44.3172C43.9591 44.1445 43.9 43.9514 43.8861 43.7524C43.8722 43.5535 43.9038 43.354 43.9785 43.1691L45.4651 39.4921C45.5297 39.3323 45.6251 39.1868 45.7459 39.0639C45.8668 38.9409 46.0106 38.843 46.1693 38.7757C46.328 38.7084 46.4984 38.673 46.6707 38.6716C46.8431 38.6701 47.014 38.7027 47.1738 38.7673C47.4965 38.8978 47.7542 39.1511 47.8901 39.4715C48.026 39.792 48.0291 40.1533 47.8987 40.476L47.8414 40.6178L52.9304 37.6796C53.2319 37.5056 53.5901 37.4585 53.9263 37.5486C54.2625 37.6387 54.5492 37.8586 54.7233 38.1599C54.8096 38.3092 54.8656 38.474 54.8881 38.6449C54.9107 38.8158 54.8993 38.9894 54.8547 39.1559C54.8101 39.3225 54.7332 39.4786 54.6282 39.6153C54.5233 39.7521 54.3924 39.8668 54.2431 39.953Z" fill="#114F93"/>
</svg>
