<svg width="54" height="44" viewBox="0 0 54 44" fill="none" xmlns="http://www.w3.org/2000/svg">
<path d="M43.6552 22.4694C49.6362 22.4694 53.6666 26.7051 53.6666 32.9809C53.6666 38.6284 49.0343 43.3334 42.76 43.3334C35.8876 43.3334 30.8095 37.6859 30.8095 29.0595C30.8095 9.4522 44.8514 1.60929 53.6666 0.666748V9.29317C47.6895 10.3909 40.9695 16.5077 40.6686 23.2568C40.9695 23.1017 42.1619 22.4694 43.6552 22.4694ZM13.1828 22.4694C19.1562 22.4694 23.1905 26.7051 23.1905 32.9809C23.1905 38.6284 18.5581 43.3334 12.2838 43.3334C5.41141 43.3334 0.333313 37.6859 0.333313 29.0595C0.333313 9.4522 14.3752 1.60929 23.1905 0.666748V9.29317C17.2133 10.3909 10.4933 16.5077 10.1924 23.2568C10.4933 23.1017 11.6857 22.4694 13.1828 22.4694Z" fill="#050505"/>
</svg>
