<svg width="20" height="20" viewBox="0 0 20 20" fill="none" xmlns="http://www.w3.org/2000/svg">
<path d="M10 20C4.4861 20 0 15.5139 0 10C0 4.4861 4.4861 0 10 0C15.5139 0 20 4.4861 20 10C20 15.5139 15.5139 20 10 20ZM10 1.25001C5.17517 1.25001 1.25001 5.17517 1.25001 10C1.25001 14.8248 5.17517 18.75 10 18.75C14.8248 18.75 18.75 14.8248 18.75 10C18.75 5.17517 14.8248 1.25001 10 1.25001Z" fill="white"/>
<path d="M10 15C7.24307 15 5 12.757 5 10C5 7.24303 7.24303 5 10 5C11.3556 5 12.6239 5.53346 13.5724 6.50207L12.6789 7.37608C11.9678 6.64974 11.0169 6.24996 10 6.24996C7.93214 6.24996 6.25001 7.93209 6.25001 9.99998C6.25001 12.0679 7.93214 13.75 10 13.75C11.0163 13.75 11.9672 13.3502 12.6789 12.6239L13.5712 13.4991C12.6233 14.4672 11.355 15 10 15Z" fill="white"/>
</svg>
