<svg width="270" height="64" viewBox="0 0 270 64" fill="none" xmlns="http://www.w3.org/2000/svg">
<path d="M125.45 24.1096C125.45 25.4354 125.203 26.6591 124.711 27.7808C124.219 28.9025 123.531 29.8713 122.648 30.6873C121.764 31.5031 120.703 32.1325 119.464 32.5738C118.224 33.016 116.857 33.2366 115.363 33.2366H111.949C111.609 33.2366 111.389 33.3052 111.287 33.4407C111.185 33.5769 111.134 33.7641 111.134 34.0015V44.9132C111.134 45.6271 110.709 45.984 109.86 45.984H105.122C104.273 45.984 103.848 45.627 103.848 44.9132V15.5434C103.848 14.8296 104.273 14.4727 105.122 14.4727H115.362C116.891 14.4727 118.274 14.7021 119.515 15.161C120.754 15.62 121.815 16.2749 122.699 17.1241C123.582 17.9742 124.261 18.9852 124.737 20.158C125.212 21.3308 125.45 22.6486 125.45 24.1096ZM118.216 23.9057C118.216 23.0563 117.952 22.3505 117.426 21.7897C116.899 21.2288 116.211 20.9483 115.363 20.9483H112.051C111.609 20.9483 111.346 21.0591 111.261 21.2798C111.176 21.5013 111.134 21.7475 111.134 22.0191V25.6394C111.134 26.0815 111.21 26.3786 111.363 26.5317C111.516 26.6847 111.745 26.7611 112.051 26.7611H115.363C116.211 26.7611 116.899 26.4806 117.426 25.9197C117.952 25.3588 118.216 24.6879 118.216 23.9055V23.9057Z" fill="white"/>
<path d="M136.913 37.9241C136.913 38.7073 137.014 39.2778 137.218 39.6355C137.422 39.9931 137.932 40.1716 138.747 40.1716H139.205C139.613 40.1716 139.868 40.2984 139.969 40.5509C140.071 40.8042 140.122 41.0146 140.122 41.1834V45.1278C140.122 45.6338 140.012 45.9453 139.791 46.0632C139.57 46.1811 139.273 46.2735 138.9 46.3412C138.458 46.4089 138.025 46.4344 137.6 46.4177C137.175 46.4001 136.929 46.3921 136.862 46.3921C134.484 46.3921 132.726 45.8314 131.589 44.7095C130.45 43.5877 129.882 41.7354 129.882 39.1518V14.5752C129.882 13.8612 130.255 13.5044 131.003 13.5044H135.741C136.046 13.5044 136.318 13.5897 136.556 13.7601C136.793 13.9306 136.913 14.2031 136.913 14.5776V37.9242V37.9241Z" fill="white"/>
<path d="M155.763 31.4013C155.83 31.4698 155.932 31.5032 156.068 31.5032C156.238 31.5032 156.323 31.4013 156.323 31.1973V30.4326C156.323 30.1608 156.28 29.8892 156.196 29.6168C156.11 29.345 155.932 29.0901 155.661 28.8519C155.388 28.6146 155.015 28.4273 154.54 28.291C154.064 28.1556 153.436 28.0871 152.655 28.0871C151.874 28.0871 151.118 28.1381 150.388 28.2401C149.657 28.3421 148.85 28.546 147.968 28.8519C147.424 29.0225 147.067 29.0813 146.898 29.0304C146.727 28.9795 146.592 28.801 146.49 28.495L145.624 25.2827C145.454 24.6032 145.641 24.1442 146.184 23.906C148.426 22.9882 151.041 22.5293 154.03 22.5293C157.495 22.5293 159.94 23.3539 161.367 25.0023C162.793 26.6515 163.507 28.9715 163.507 31.9623V45.0665C163.507 45.6784 163.218 45.9843 162.64 45.9843H157.495C157.324 45.9843 157.164 45.9254 157.011 45.8058C156.858 45.6871 156.781 45.4919 156.781 45.2194V45.0155C156.781 44.7096 156.696 44.5565 156.527 44.5565C156.425 44.5565 156.289 44.6249 156.119 44.7605C155.338 45.3725 154.573 45.7804 153.827 45.9842C153.079 46.1881 152.264 46.2901 151.381 46.2901C150.09 46.2901 148.944 46.0941 147.942 45.7037C146.94 45.3133 146.091 44.7692 145.395 44.072C144.698 43.3757 144.163 42.5422 143.79 41.5736C143.416 40.6047 143.23 39.5428 143.23 38.3868C143.23 37.2308 143.416 36.1609 143.79 35.1744C144.163 34.1888 144.715 33.3389 145.446 32.6249C146.176 31.9111 147.067 31.3502 148.12 30.9423C149.173 30.5344 150.362 30.3305 151.687 30.3305C152.366 30.3305 153.054 30.407 153.75 30.5599C154.446 30.7129 155.117 30.9932 155.763 31.4013ZM149.7 38.1318C149.7 38.9476 149.963 39.6359 150.49 40.197C151.016 40.7578 151.771 41.0382 152.757 41.0382C153.674 41.0382 154.412 40.7666 154.973 40.2225C155.533 39.6792 155.814 38.982 155.814 38.1319C155.814 37.3161 155.55 36.6278 155.024 36.0669C154.497 35.5059 153.742 35.2255 152.757 35.2255C151.84 35.2255 151.101 35.498 150.541 36.0413C149.98 36.5854 149.7 37.2826 149.7 38.1318Z" fill="white"/>
<path d="M188.369 54.1423C188.369 54.8561 187.978 55.213 187.197 55.213H182.459C182.153 55.213 181.889 55.1276 181.669 54.958C181.448 54.7876 181.338 54.5159 181.338 54.1423V45.729C181.338 45.3554 181.015 45.3554 180.37 45.729C179.894 46.0007 179.342 46.1705 178.714 46.239C178.085 46.3067 177.533 46.341 177.058 46.341C175.461 46.341 174.111 46.1116 173.008 45.6527C171.904 45.1937 171.012 44.5739 170.333 43.7915C169.654 43.0099 169.153 42.0755 168.83 40.9871C168.507 39.8996 168.346 38.7436 168.346 37.5198V31.758C168.346 30.6361 168.482 29.5232 168.754 28.4182C169.025 27.314 169.475 26.3363 170.104 25.4863C170.732 24.6369 171.573 23.9485 172.626 23.4212C173.678 22.8945 174.986 22.6309 176.549 22.6309C177.058 22.6309 177.644 22.6906 178.306 22.8093C178.969 22.9288 179.622 23.2093 180.268 23.6507C180.437 23.7527 180.574 23.8547 180.676 23.9567C180.778 24.0586 180.879 24.1097 180.981 24.1097C181.151 24.1097 181.287 24.0252 181.389 23.8548C181.524 23.6175 181.651 23.4301 181.771 23.2939C181.889 23.1585 182.102 23.09 182.408 23.09H187.197C187.977 23.09 188.368 23.4469 188.368 24.1607V54.1425L188.369 54.1423ZM181.338 31.8975C181.338 31.1198 181.125 30.4259 180.701 29.8165C180.276 29.2078 179.52 28.9027 178.434 28.9027C177.448 28.9027 176.693 29.1991 176.167 29.791C175.64 30.3838 175.377 31.0857 175.377 31.8976V37.3288C175.377 38.1415 175.623 38.8179 176.116 39.3596C176.608 39.9013 177.346 40.1714 178.332 40.1714C179.351 40.1714 180.106 39.9013 180.599 39.3596C181.091 38.8177 181.338 38.1415 181.338 37.3288V31.8975Z" fill="white"/>
<path d="M194.015 23.0389H198.77C199.141 23.0389 199.435 23.1329 199.655 23.3193C199.874 23.5065 199.984 23.7703 199.984 24.1096V37.3667C199.984 38.1491 200.189 38.812 200.6 39.3553C201.011 39.8994 201.799 40.1711 202.964 40.1711C204.06 40.1711 204.831 39.8572 205.277 39.2277C205.722 38.5991 205.944 37.9786 205.944 37.3666V24.1095C205.944 23.3957 206.335 23.0387 207.116 23.0387H211.854C212.601 23.0387 212.975 23.3957 212.975 24.1095V44.9131C212.975 45.627 212.601 45.9839 211.854 45.9839H206.861C206.25 45.9839 205.944 45.6269 205.944 44.9131C205.944 44.7435 205.894 44.6501 205.792 44.6326C205.69 44.616 205.57 44.6757 205.435 44.8111C204.857 45.321 204.11 45.7034 203.193 45.9583C202.276 46.2133 201.393 46.3407 200.544 46.3407C199.151 46.3407 197.979 46.1113 197.029 45.6523C196.078 45.1934 195.297 44.5736 194.685 43.7912C194.074 43.0096 193.632 42.0752 193.361 40.9867C193.088 39.8993 192.953 38.7264 192.953 37.4686V24.1094C192.953 23.3956 193.306 23.0386 194.015 23.0386V23.0389Z" fill="white"/>
<path d="M225.61 17.0734C225.61 17.5832 225.499 18.0677 225.279 18.5265C225.057 18.9854 224.769 19.3933 224.413 19.7501C224.056 20.1071 223.64 20.3874 223.164 20.5915C222.688 20.7955 222.179 20.8975 221.636 20.8975C220.515 20.8975 219.564 20.5238 218.783 19.7756C218.001 19.0284 217.611 18.1272 217.611 17.0732C217.611 15.9857 218.001 15.0766 218.783 14.3453C219.564 13.6147 220.515 13.249 221.636 13.249C222.722 13.249 223.656 13.6235 224.438 14.3709C225.219 15.119 225.61 16.0202 225.61 17.0734ZM225.151 44.9134C225.151 45.6273 224.76 45.9842 223.98 45.9842H219.241C218.494 45.9842 218.12 45.6272 218.12 44.9134V24.1607C218.12 23.4135 218.494 23.039 219.241 23.039H223.98C224.285 23.039 224.557 23.133 224.794 23.3195C225.032 23.5067 225.151 23.7873 225.151 24.1609V44.9135V44.9134Z" fill="white"/>
<path d="M243.492 23.0901C244.137 23.0901 244.46 23.4471 244.46 24.1609V27.5263C244.46 28.2401 244.137 28.5971 243.492 28.5971H239.722C239.45 28.5971 239.271 28.648 239.187 28.75C239.102 28.852 239.059 28.9882 239.059 29.1579V38.183C239.059 38.8634 239.212 39.3391 239.518 39.6108C239.824 39.8833 240.299 40.0187 240.944 40.0187C241.012 40.0187 241.14 40.0106 241.327 39.9931C241.513 39.9764 241.717 39.9597 241.938 39.9422C242.158 39.9255 242.362 39.9087 242.549 39.8913C242.736 39.8745 242.881 39.8656 242.982 39.8656C243.56 39.7979 243.95 39.7979 244.154 39.8656C244.358 39.9342 244.528 40.2735 244.664 40.8855L245.275 44.1488C245.41 44.7949 245.334 45.2195 245.046 45.4236C244.757 45.6275 244.477 45.7637 244.205 45.8314C243.525 46.001 242.787 46.1197 241.989 46.1883C241.191 46.2561 240.401 46.2904 239.62 46.2904C238.083 46.2904 236.827 46.1032 235.851 45.7295C234.876 45.3559 234.107 44.846 233.542 44.1999C232.978 43.5545 232.584 42.8064 232.362 41.9563C232.139 41.107 232.029 40.206 232.029 39.254V29.2091C232.029 28.8012 231.807 28.5972 231.366 28.5972H229.583C228.903 28.5972 228.564 28.2403 228.564 27.5265V24.161C228.564 23.4472 228.903 23.0903 229.583 23.0903H231.214C231.485 23.0903 231.68 23.0058 231.799 22.8354C231.918 22.6657 231.978 22.4618 231.978 22.2236V18.8072C231.978 18.06 232.354 17.601 233.107 17.4305L237.622 16.4617C237.724 16.4283 237.879 16.4106 238.084 16.4106C238.46 16.4106 238.717 16.5126 238.854 16.7166C238.991 16.9205 239.059 17.1587 239.059 17.4304V22.2234C239.059 22.3939 239.102 22.5804 239.187 22.7843C239.271 22.9883 239.551 23.0903 240.027 23.0903H243.492L243.492 23.0901Z" fill="white"/>
<path d="M259.642 54.1937C259.54 54.4995 259.378 54.7545 259.158 54.9584C258.936 55.1625 258.639 55.2643 258.266 55.2643H253.579C253.205 55.2643 252.925 55.1537 252.738 54.933C252.551 54.7114 252.543 54.3632 252.713 53.8876L254.7 46.953C254.802 46.5785 254.818 46.3237 254.751 46.1881C254.682 46.052 254.478 45.9842 254.139 45.9842H253.528C253.12 45.9842 252.822 45.8822 252.636 45.6783C252.449 45.4743 252.305 45.2193 252.203 44.9134L246.09 24.3138C245.954 23.8723 245.979 23.5491 246.166 23.345C246.352 23.141 246.632 23.0391 247.007 23.0391H252.458C252.899 23.0391 253.197 23.141 253.349 23.345C253.502 23.5489 253.63 23.8214 253.732 24.1608L255.871 32.676L257.094 38.0809C257.162 38.3534 257.264 38.4632 257.4 38.4123C257.535 38.3614 257.637 38.2514 257.705 38.0809L261.577 24.1609C261.679 23.8216 261.84 23.5491 262.061 23.3451C262.282 23.1412 262.63 23.0392 263.106 23.0392H267.997C268.37 23.0392 268.667 23.1755 268.888 23.4471C269.109 23.7196 269.134 24.0932 268.964 24.5688L259.641 54.1935L259.642 54.1937Z" fill="white"/>
<path d="M81.2831 55.8614C84.9232 47.187 87.4653 38.88 88.2701 32.1758C89.5975 21.159 86.2861 8.16061 72.8994 13.1254C64.8219 16.1241 61.6515 21.6158 55.8049 26.0596C45.2007 34.0931 30.6499 14.0478 22.3386 7.42589C16.1501 2.49448 8.35207 0.967583 4.09062 8.84484C-2.28039 20.6245 0.228337 40.9757 6.40125 60.6683H14.8112C13.8223 56.9303 13.0225 53.1725 12.4639 49.4658C8.69142 24.4732 17.9976 15.601 34.0383 30.8917C41.8933 38.3825 53.0668 41.0856 63.8118 30.4042C66.1226 28.1118 77.9351 14.5265 80.6201 22.4036C82.7492 28.656 80.1918 40.5807 75.5244 53.6134C74.1718 57.39 79.731 59.5603 81.2832 55.8615L81.2831 55.8614Z" fill="white"/>
</svg>
