<svg width="84" height="84" viewBox="0 0 84 84" fill="none" xmlns="http://www.w3.org/2000/svg">
<path d="M76.6805 13.8208H73.5388C74.0064 12.6407 74.2462 11.3828 74.2458 10.1135C74.2458 8.58408 73.9124 7.11391 73.2549 5.7435C73.1137 5.4493 72.8614 5.22324 72.5535 5.11503C72.2457 5.00682 71.9075 5.02533 71.6132 5.16649C71.319 5.30765 71.0929 5.5599 70.9847 5.86776C70.8764 6.17562 70.8949 6.51387 71.0361 6.8081C71.5329 7.8435 71.7847 8.95552 71.7847 10.1133C71.7847 14.333 68.3517 17.766 64.132 17.766C59.9123 17.766 56.4793 14.333 56.4793 10.1133C56.4793 5.89362 59.9126 2.46094 64.1322 2.46094C65.3387 2.46094 66.4948 2.73541 67.5691 3.27666C67.8599 3.41809 68.1947 3.43937 68.5011 3.3359C68.8075 3.23243 69.0608 3.01252 69.2063 2.72373C69.3519 2.43494 69.3778 2.10048 69.2787 1.79267C69.1796 1.48486 68.9632 1.22845 68.6765 1.07888C67.2556 0.36307 65.7267 0 64.1322 0C58.5555 0 54.0185 4.53698 54.0185 10.1136C54.0181 11.3829 54.2579 12.6409 54.7255 13.821H50.3639C48.5421 11.1464 45.473 9.38634 42 9.38634C38.5269 9.38634 35.4578 11.1464 33.6361 13.821H7.31946C5.28393 13.821 3.62805 15.4768 3.62805 17.5124V62.7884C3.62805 64.3714 4.91611 65.6595 6.49915 65.6595H29.0917V68.5794C29.0917 71.5039 31.1714 73.9517 33.9292 74.5221V75.3562H33.6249C32.494 75.3562 31.5741 76.2761 31.5741 77.407V81.9492C31.5741 83.0801 32.494 84 33.6249 84H50.375C51.5059 84 52.4258 83.0801 52.4258 81.9492V77.4068C52.4258 76.2759 51.5059 75.356 50.375 75.356H49.8021V74.571C52.6924 74.1087 54.9082 71.5977 54.9082 68.5793V65.6593H63C63.6797 65.6593 64.2304 65.1084 64.2304 64.4288C64.2304 63.7493 63.6797 63.1984 63 63.1984H54.9082V56.2818C54.9082 54.0266 53.1098 52.1317 50.8994 52.0577C49.766 52.0201 48.689 52.4332 47.8734 53.222L47.8375 53.2571C47.0872 52.5144 46.0561 52.0552 44.9195 52.0552C43.7822 52.0552 42.7502 52.5149 42 53.2585C41.2497 52.5149 40.2179 52.0552 39.0806 52.0552C38.4795 52.0552 37.9079 52.1837 37.3916 52.4147V47.2931H54.9643C54.9084 47.7219 54.8798 48.1538 54.8789 48.5861C54.8789 54.1628 59.4157 58.6998 64.9925 58.6998C70.5693 58.6998 75.1061 54.1628 75.1061 48.5861C75.1061 43.1427 70.7828 38.6923 65.3899 38.4827C64.8042 34.8758 61.6689 32.1129 57.8993 32.1129H37.0781C36.7518 32.1129 36.4388 32.2426 36.208 32.4733C35.9773 32.7041 35.8476 33.0171 35.8476 33.3434C35.8476 33.6697 35.9773 33.9827 36.208 34.2135C36.4388 34.4442 36.7518 34.5739 37.0781 34.5739H57.8989C60.3789 34.5739 62.453 36.3431 62.9265 38.6854C59.5875 39.3814 56.8494 41.7295 55.6042 44.8322H37.1235C36.9068 44.2613 36.5663 43.7455 36.1265 43.3219C35.311 42.533 34.2354 42.1198 33.1007 42.1577C31.4238 42.2136 29.9852 43.3179 29.3877 44.8322H26.101C23.2727 44.8322 20.9719 42.5312 20.9719 39.703C20.9719 36.8747 23.2727 34.5737 26.101 34.5737H31.3359C31.6622 34.5737 31.9752 34.4441 32.206 34.2133C32.4367 33.9826 32.5664 33.6696 32.5664 33.3432C32.5664 33.0169 32.4367 32.7039 32.206 32.4732C31.9752 32.2424 31.6622 32.1128 31.3359 32.1128H26.1008C21.9156 32.1128 18.5108 35.5177 18.5108 39.703C18.5108 43.8882 21.9156 47.2931 26.1008 47.2931H29.0917V63.1982H6.49915C6.3904 63.1981 6.28616 63.1548 6.20926 63.0779C6.13237 63.001 6.08912 62.8968 6.08899 62.788V24.8671H33.4343C35.2253 27.7152 38.3944 29.6133 42 29.6133C45.6057 29.6133 48.7746 27.7152 50.5657 24.8671H77.9109V62.7882C77.9109 63.0143 77.727 63.1984 77.5008 63.1984H68.7421C68.0624 63.1984 67.5117 63.7493 67.5117 64.4288C67.5117 65.1084 68.0624 65.6593 68.7421 65.6593H77.5008C79.0838 65.6593 80.3719 64.3712 80.3719 62.7882V17.5122C80.3719 15.4767 78.7158 13.8208 76.6805 13.8208ZM64.9925 40.9336C69.2122 40.9336 72.6452 44.3666 72.6452 48.5863C72.6452 52.806 69.2122 56.239 64.9925 56.239C60.7728 56.239 57.3398 52.8058 57.3398 48.5863C57.3398 44.3668 60.7728 40.9336 64.9925 40.9336ZM49.9649 77.817V81.5391H34.0351V77.817H49.9649ZM31.5526 46.3818C31.5526 45.4388 32.2839 44.6473 33.1828 44.6173C33.6471 44.6032 34.084 44.7702 34.4157 45.0909C34.5792 45.248 34.7092 45.4365 34.7977 45.6452C34.8862 45.854 34.9314 46.0785 34.9307 46.3052V56.205C34.9307 56.5314 35.0603 56.8443 35.2911 57.0751C35.5218 57.3059 35.8348 57.4355 36.1611 57.4355C36.4875 57.4355 36.8004 57.3059 37.0312 57.0752C37.2619 56.8444 37.3916 56.5315 37.3916 56.2052C37.3916 55.274 38.1494 54.5163 39.0806 54.5163C40.0119 54.5163 40.7695 55.274 40.7695 56.2053C40.7695 56.5317 40.8991 56.8447 41.1299 57.0754C41.3607 57.3062 41.6736 57.4358 42 57.4358C42.3263 57.4358 42.6393 57.3062 42.87 57.0754C43.1008 56.8447 43.2304 56.5317 43.2304 56.2053C43.2304 55.274 43.9881 54.5163 44.9195 54.5163C45.8507 54.5163 46.6083 55.274 46.6083 56.2053C46.6083 56.8849 47.1591 57.4358 47.8388 57.4358C48.5185 57.4358 49.0693 56.8849 49.0693 56.2053C49.0693 55.7435 49.2522 55.3124 49.5842 54.9911C49.7474 54.8334 49.9407 54.7101 50.1525 54.6287C50.3643 54.5473 50.5904 54.5094 50.8172 54.5173C51.7161 54.5475 52.4473 55.3389 52.4473 56.2818V68.5793C52.4473 70.5682 50.8292 72.1864 48.8402 72.1864H48.5717C48.2453 72.1864 47.9323 72.316 47.7016 72.5467C47.4708 72.7775 47.3412 73.0905 47.3412 73.4168V75.356H36.3902V73.4168C36.3902 73.0905 36.2605 72.7775 36.0298 72.5467C35.799 72.316 35.4861 72.1864 35.1597 72.1864C33.1708 72.1864 31.5526 70.5682 31.5526 68.5793V46.3818ZM15.5677 22.4062H6.08899V17.5122C6.08899 17.4274 6.09768 17.3445 6.11409 17.2645C6.2291 16.7042 6.72588 16.2817 7.31946 16.2817H15.5675L15.5677 22.4062ZM32.3141 22.4062H18.0285V16.2817H32.4143C31.7462 18.2634 31.7112 20.4037 32.3141 22.4062ZM42 27.1523C37.7803 27.1523 34.3473 23.7193 34.3473 19.4996C34.3473 15.28 37.7803 11.8471 42 11.8471C46.2197 11.8471 49.6527 15.2801 49.6527 19.4998C49.6527 23.7195 46.2197 27.1523 42 27.1523ZM77.9109 22.4062H51.6859C52.2886 20.4037 52.2536 18.2634 51.5856 16.2817H56.1256C57.9767 18.6788 60.8762 20.2271 64.1322 20.2271C67.3881 20.2271 70.2878 18.6788 72.1387 16.2817H76.6803C77.3589 16.2817 77.9108 16.8336 77.9108 17.5122L77.9109 22.4062Z" fill="#114F93"/>
<path d="M27.3436 39.7031C27.3436 40.0294 27.4733 40.3424 27.704 40.5732C27.9348 40.8039 28.2478 40.9335 28.5741 40.9335H55.4259C56.1056 40.9335 56.6564 40.3826 56.6564 39.7031C56.6564 39.0235 56.1056 38.4726 55.4259 38.4726H28.5741C28.2478 38.4726 27.9348 38.6022 27.704 38.833C27.4733 39.0638 27.3436 39.3767 27.3436 39.7031ZM63.9463 49.8167H66.0388C66.2145 49.8169 66.3829 49.8868 66.5071 50.011C66.6314 50.1352 66.7012 50.3037 66.7014 50.4794C66.7012 50.6551 66.6314 50.8235 66.5071 50.9478C66.3829 51.0721 66.2145 51.142 66.0388 51.1422H62.3521C61.6724 51.1422 61.1216 51.6931 61.1216 52.3726C61.1216 53.0522 61.6724 53.6031 62.3521 53.6031H63.7621V54.3156C63.7621 54.9952 64.3128 55.5461 64.9925 55.5461C65.6722 55.5461 66.223 54.9952 66.223 54.3156V53.5938C67.8594 53.4976 69.1624 52.1397 69.1624 50.4794C69.1624 48.757 67.7611 47.3558 66.0388 47.3558H63.9463C63.7706 47.3556 63.6022 47.2857 63.4779 47.1615C63.3537 47.0373 63.2838 46.8688 63.2837 46.6931C63.2838 46.5174 63.3537 46.349 63.4779 46.2247C63.6022 46.1004 63.7706 46.0305 63.9463 46.0303H67.6331C68.3128 46.0303 68.8636 45.4794 68.8636 44.7998C68.8636 44.1203 68.3128 43.5694 67.6331 43.5694H66.223V42.8569C66.223 42.1773 65.6722 41.6264 64.9925 41.6264C64.3128 41.6264 63.7621 42.1773 63.7621 42.8569V43.5787C62.1257 43.6749 60.8227 45.0328 60.8227 46.6931C60.8227 48.4155 62.224 49.8167 63.9463 49.8167ZM43.0462 18.2691H40.9538C40.7781 18.2689 40.6097 18.199 40.4855 18.0748C40.3612 17.9506 40.2913 17.7822 40.2911 17.6065C40.2913 17.4308 40.3612 17.2623 40.4854 17.1381C40.6096 17.0138 40.7781 16.9439 40.9538 16.9437H44.6406C45.3203 16.9437 45.8711 16.3928 45.8711 15.7132C45.8711 15.0337 45.3203 14.4827 44.6406 14.4827H43.2305V13.7702C43.2305 13.4439 43.1008 13.1309 42.8701 12.9001C42.6393 12.6694 42.3263 12.5397 42 12.5397C41.6737 12.5397 41.3607 12.6694 41.1299 12.9001C40.8992 13.1309 40.7695 13.4439 40.7695 13.7702V14.4921C39.1332 14.5882 37.8302 15.9462 37.8302 17.6065C37.8302 19.3288 39.2314 20.7301 40.9538 20.7301H43.0462C43.2219 20.7302 43.3904 20.8001 43.5146 20.9243C43.6388 21.0486 43.7087 21.217 43.7089 21.3927C43.7087 21.5684 43.6388 21.7369 43.5146 21.8612C43.3904 21.9854 43.2219 22.0553 43.0462 22.0555H39.3596C39.0332 22.0555 38.7203 22.1852 38.4895 22.4159C38.2587 22.6467 38.1291 22.9597 38.1291 23.286C38.1291 23.6123 38.2587 23.9253 38.4895 24.1561C38.7203 24.3868 39.0332 24.5165 39.3596 24.5165H40.7695V25.229C40.7695 25.5553 40.8992 25.8683 41.1299 26.0991C41.3607 26.3298 41.6737 26.4595 42 26.4595C42.3263 26.4595 42.6393 26.3298 42.8701 26.0991C43.1008 25.8683 43.2305 25.5553 43.2305 25.229V24.5071C44.8668 24.411 46.1698 23.053 46.1698 21.3927C46.1698 19.6704 44.7686 18.2691 43.0462 18.2691ZM64.1322 17.0733C64.4585 17.0733 64.7715 16.9436 65.0023 16.7129C65.233 16.4821 65.3627 16.1692 65.3627 15.8428V15.1209C66.999 15.0248 68.302 13.6669 68.302 12.0065C68.302 10.2842 66.9008 8.88296 65.1784 8.88296H63.086C62.9103 8.88278 62.7418 8.81291 62.6176 8.68868C62.4934 8.56445 62.4235 8.396 62.4233 8.22031C62.4235 8.0446 62.4934 7.87614 62.6176 7.75188C62.7418 7.62762 62.9103 7.55771 63.086 7.55749H66.7728C67.4525 7.55749 68.0033 7.00657 68.0033 6.32703C68.0033 5.64748 67.4525 5.09656 66.7728 5.09656H65.3627V4.38403C65.3627 3.70449 64.8119 3.15356 64.1322 3.15356C63.4525 3.15356 62.9017 3.70449 62.9017 4.38403V5.10591C61.2654 5.20205 59.9624 6.55999 59.9624 8.22031C59.9624 9.94263 61.3636 11.3439 63.086 11.3439H65.1784C65.3541 11.3441 65.5226 11.4139 65.6468 11.5382C65.771 11.6624 65.8409 11.8308 65.8411 12.0065C65.8409 12.1822 65.771 12.3507 65.6468 12.475C65.5226 12.5992 65.3541 12.6691 65.1784 12.6694H61.4918C60.8121 12.6694 60.2613 13.2203 60.2613 13.8998C60.2613 14.5794 60.8121 15.1303 61.4918 15.1303H62.9017V15.8428C62.9017 16.1692 63.0314 16.4821 63.2621 16.7129C63.4929 16.9436 63.8059 17.0733 64.1322 17.0733ZM8.69531 57.1757C8.69531 59.2113 10.3512 60.8671 12.3867 60.8671C14.4222 60.8671 16.0781 59.2113 16.0781 57.1757C16.0781 55.1402 14.4222 53.4843 12.3867 53.4843C10.3512 53.4843 8.69531 55.1402 8.69531 57.1757ZM13.6172 57.1757C13.6172 57.8543 13.0653 58.4062 12.3867 58.4062C11.7082 58.4062 11.1562 57.8543 11.1562 57.1757C11.1562 56.4972 11.7082 55.9453 12.3867 55.9453C13.0653 55.9453 13.6172 56.4972 13.6172 57.1757ZM25.1836 57.1757C25.1836 55.1402 23.5277 53.4843 21.4922 53.4843C19.4567 53.4843 17.8008 55.1402 17.8008 57.1757C17.8008 59.2113 19.4567 60.8671 21.4922 60.8671C23.5277 60.8671 25.1836 59.2113 25.1836 57.1757ZM20.2617 57.1757C20.2617 56.4972 20.8136 55.9453 21.4922 55.9453C22.1707 55.9453 22.7227 56.4972 22.7227 57.1757C22.7227 57.8543 22.1707 58.4062 21.4922 58.4062C20.8136 58.4062 20.2617 57.8543 20.2617 57.1757Z" fill="#114F93"/>
</svg>
