<svg width="42" height="42" viewBox="0 0 42 42" fill="none" xmlns="http://www.w3.org/2000/svg">
<path d="M41.0895 32.04C39.7785 30.9405 32.0895 26.0715 30.8115 26.295C30.2115 26.4015 29.7525 26.913 28.524 28.3785C27.9559 29.0998 27.332 29.7754 26.658 30.399C25.4232 30.1007 24.2279 29.6576 23.097 29.079C18.6619 26.9197 15.0789 23.3357 12.921 18.9C12.3424 17.7691 11.8993 16.5738 11.601 15.339C12.2246 14.665 12.9002 14.0411 13.6215 13.473C15.0855 12.2445 15.5985 11.7885 15.705 11.1855C15.9285 9.9045 11.055 2.2185 9.96 0.9075C9.501 0.3645 9.084 0 8.55 0C7.002 0 0 8.658 0 9.78C0 9.8715 0.15 18.885 11.5335 30.4665C23.115 41.85 32.1285 42 32.22 42C33.342 42 42 34.998 42 33.45C42 32.916 41.6355 32.499 41.0895 32.04ZM31.5 19.5H34.5C34.4964 16.3185 33.231 13.2683 30.9813 11.0187C28.7317 8.769 25.6815 7.50357 22.5 7.5V10.5C24.8862 10.5024 27.174 11.4514 28.8613 13.1387C30.5486 14.826 31.4976 17.1138 31.5 19.5Z" fill="#FA8D25"/>
<path d="M39 19.5H42C41.994 14.3301 39.9377 9.37366 36.282 5.71799C32.6263 2.06233 27.6699 0.00595496 22.5 0V3C26.8745 3.00516 31.0683 4.74521 34.1616 7.83844C37.2548 10.9317 38.9948 15.1255 39 19.5Z" fill="#FA8D25"/>
</svg>
