<svg width="82" height="82" viewBox="0 0 82 82" fill="none" xmlns="http://www.w3.org/2000/svg">
<path d="M75.3636 64.9272H6.63634C3.07271 64.9272 0.272705 62.1272 0.272705 58.5636V19.2363C0.272705 15.6727 3.07271 12.8727 6.63634 12.8727H7.14543C7.90907 12.8727 8.41816 13.3818 8.41816 14.1454C8.41816 14.909 7.90907 15.4181 7.14543 15.4181H6.63634C4.4727 15.4181 2.81816 17.0727 2.81816 19.2363V58.5636C2.81816 60.7272 4.4727 62.3818 6.63634 62.3818H75.3636C77.5273 62.3818 79.1818 60.7272 79.1818 58.5636V19.2363C79.1818 17.0727 77.5273 15.4181 75.3636 15.4181H36.1636C35.4 15.4181 34.8909 14.909 34.8909 14.1454C34.8909 13.3818 35.4 12.8727 36.1636 12.8727H75.3636C78.9272 12.8727 81.7272 15.6727 81.7272 19.2363V58.5636C81.7272 62.1272 78.9272 64.9272 75.3636 64.9272Z" fill="#114F93"/>
<path d="M80.4545 57.1636H1.54543C0.781796 57.1636 0.272705 56.6545 0.272705 55.8909C0.272705 55.1273 0.781796 54.6182 1.54543 54.6182H80.4545C81.2182 54.6182 81.7272 55.1273 81.7272 55.8909C81.7272 56.6545 81.2182 57.1636 80.4545 57.1636ZM49.7818 73.2H32.2182C31.4545 73.2 30.9454 72.6909 30.9454 71.9273V63.6545C30.9454 62.8909 31.4545 62.3818 32.2182 62.3818H49.7818C50.5454 62.3818 51.0545 62.8909 51.0545 63.6545V71.9273C51.0545 72.6909 50.5454 73.2 49.7818 73.2ZM33.4909 70.6545H48.5091V64.9273H33.4909V70.6545Z" fill="#114F93"/>
<path d="M55.2545 81.6H26.7454C24.9636 81.6 23.5636 80.2 23.5636 78.4182V73.8363C23.5636 72.0545 24.9636 70.6545 26.7454 70.6545H55.2545C57.0364 70.6545 58.4363 72.0545 58.4363 73.8363V78.4182C58.4363 80.2 57.0364 81.6 55.2545 81.6ZM26.7454 73.2C26.4909 73.2 26.1091 73.5818 26.1091 73.8363V78.4182C26.1091 78.6727 26.2363 79.0545 26.7454 79.0545H55.2545C55.5091 79.0545 55.8909 78.9272 55.8909 78.4182V73.8363C55.8909 73.5818 55.7636 73.2 55.2545 73.2H26.7454ZM42.9091 61.1091H39.0909C38.3273 61.1091 37.8182 60.6 37.8182 59.8363C37.8182 59.0727 38.3273 58.5636 39.0909 58.5636H42.9091C43.6727 58.5636 44.1818 59.0727 44.1818 59.8363C44.1818 60.6 43.6727 61.1091 42.9091 61.1091ZM21.6545 31.4545C20.3818 31.4545 19.2363 31.3272 18.0909 31.0727C17.4545 30.9454 17.0727 30.3091 17.2 29.6727C17.4545 28.2727 17.0727 27.5091 16.6909 27.2545C16.4363 27.1272 15.6727 27.5091 14.9091 28.5272C14.5273 29.0363 13.7636 29.1636 13.2545 28.9091C11.3454 27.6363 9.81817 25.9818 8.67271 24.0727C8.29089 23.5636 8.54544 22.8 9.05453 22.4182C10.2 21.5272 10.4545 20.7636 10.4545 20.5091C10.3273 20.2545 9.56362 19.8727 8.16362 19.8727C7.52726 19.8727 6.89089 19.4909 6.76362 18.8545C6.3818 16.5636 6.3818 14.2727 6.89089 12.2363C7.01817 11.6 7.65453 11.2182 8.29089 11.3454C9.43635 11.3454 10.3273 10.9636 10.4545 10.7091C10.5818 10.4545 10.2 9.56361 9.1818 8.79997C8.67271 8.41815 8.54544 7.65452 8.92726 7.14543C10.2 5.23634 11.8545 3.70906 13.7636 2.56361C14.2727 2.18179 15.0363 2.43634 15.4182 2.94543C16.1818 4.09088 17.0727 4.34543 17.3273 4.34543C17.5818 4.09088 18.0909 3.19997 17.9636 1.79997C17.9636 1.16361 18.3454 0.527245 18.9818 0.399973C21.2727 0.0181543 23.5636 0.0181544 25.6 0.527245C26.2363 0.654518 26.6182 1.29088 26.4909 1.92725C26.2363 3.32724 26.6182 4.09088 27 4.34543C27.2545 4.4727 28.0182 4.09088 28.7818 3.0727C29.1636 2.56361 29.9273 2.43634 30.4363 2.69088C32.3454 3.96361 33.8727 5.61815 35.0182 7.52725C35.4 8.03634 35.1454 8.79997 34.6363 9.18179C33.4909 10.0727 33.2363 10.8363 33.2363 11.0909C33.3636 11.3454 34.1273 11.7272 35.4 11.6C36.0363 11.4727 36.6727 11.9818 36.8 12.6182C37.1818 14.9091 37.1818 17.2 36.6727 19.2363C36.5454 19.8727 35.9091 20.2545 35.2727 20.1272C33.8727 19.8727 33.1091 20.2545 32.8545 20.6363C32.6 21.2727 33.3636 22.1636 34.1273 22.6727C34.6363 23.0545 34.7636 23.8182 34.5091 24.3272C33.2363 26.2363 31.5818 27.7636 29.6727 28.9091C29.1636 29.2909 28.4 29.0363 28.0182 28.5272C27.3818 27.5091 26.4909 27 25.9818 27.2545C25.7273 27.3818 25.3454 28.1454 25.4727 29.5454C25.4727 30.1818 25.0909 30.8182 24.4545 30.9454C23.6909 31.3272 22.6727 31.4545 21.6545 31.4545ZM19.7454 28.7818C20.8909 28.9091 22.0363 29.0363 23.1818 28.7818C23.3091 27 24.2 25.6 25.3454 25.0909C26.7454 24.5818 28.2727 25.0909 29.5454 26.3636C30.5636 25.7272 31.3273 24.9636 32.0909 24.0727C30.8182 22.8 30.4363 21.1454 30.9454 19.7454C31.5818 18.4727 32.9818 17.7091 34.7636 17.7091C34.8909 16.5636 35.0182 15.4182 34.8909 14.2727C33.1091 14.2727 31.7091 13.3818 31.2 12.1091C30.6909 10.8363 31.2 9.30906 32.4727 8.03634C31.8363 7.01815 31.0727 6.25452 30.1818 5.49088C28.9091 6.76361 27.2545 7.2727 25.9818 6.63634C24.7091 5.99997 24.0727 4.59997 24.0727 2.81815C22.9273 2.69088 21.7818 2.56361 20.6363 2.81815C20.5091 4.72725 19.7454 6.12725 18.3454 6.63634C17.0727 7.14543 15.5454 6.63634 14.2727 5.36361C13.2545 5.99997 12.4909 6.76361 11.7273 7.65452C13 8.92725 13.5091 10.5818 12.8727 11.8545C12.2363 13.1272 10.8363 13.7636 9.05453 13.7636C8.92726 14.9091 8.79998 16.0545 9.05453 17.2C10.8363 17.3272 12.2363 18.0909 12.7454 19.3636C13.2545 20.6363 12.7454 22.1636 11.4727 23.4363C12.1091 24.4545 12.8727 25.2182 13.7636 25.9818C15.0363 24.7091 16.6909 24.2 17.9636 24.8363C18.9818 25.6 19.7454 27 19.7454 28.7818Z" fill="#114F93"/>
<path d="M21.7818 24.4546C19.5202 24.4546 17.3513 23.5562 15.7521 21.957C14.1529 20.3578 13.2545 18.1889 13.2545 15.9273C13.2545 13.6657 14.1529 11.4968 15.7521 9.8976C17.3513 8.29843 19.5202 7.40002 21.7818 7.40002C24.0434 7.40002 26.2123 8.29843 27.8115 9.8976C29.4107 11.4968 30.3091 13.6657 30.3091 15.9273C30.3091 18.1889 29.4107 20.3578 27.8115 21.957C26.2123 23.5562 24.0434 24.4546 21.7818 24.4546ZM21.7818 9.94548C18.4727 9.94548 15.8 12.6182 15.8 15.9273C15.8 19.2364 18.4727 21.9091 21.7818 21.9091C25.0909 21.9091 27.7636 19.2364 27.7636 15.9273C27.7636 12.6182 25.0909 9.94548 21.7818 9.94548ZM71.8 51.4364H44.9454C42.4 51.4364 40.4909 49.5273 40.4909 46.9818V23.9455C40.4909 21.4 42.4 19.4909 44.9454 19.4909H71.9272C74.4727 19.4909 76.3818 21.4 76.3818 23.9455V47.1091C76.2545 49.5273 74.2182 51.4364 71.8 51.4364ZM44.9454 22.0364C43.9272 22.0364 43.0363 22.9273 43.0363 23.9455V46.9818C43.0363 48 43.9272 48.8909 44.9454 48.8909H71.8C72.8182 48.8909 73.7091 48.1273 73.8363 46.9818V23.9455C73.8363 22.9273 72.9454 22.0364 71.9272 22.0364H44.9454Z" fill="#114F93"/>
<path d="M74.9818 30.5636H41.7636C41 30.5636 40.4909 30.0545 40.4909 29.2908C40.4909 28.5272 41 28.0181 41.7636 28.0181H74.9818C75.7455 28.0181 76.2545 28.5272 76.2545 29.2908C76.2545 30.0545 75.7455 30.5636 74.9818 30.5636ZM59.8364 26.3636H46.0909C45.3273 26.3636 44.8182 25.8545 44.8182 25.0908C44.8182 24.3272 45.3273 23.8181 46.0909 23.8181H59.8364C60.6 23.8181 61.1091 24.3272 61.1091 25.0908C61.1091 25.8545 60.6 26.3636 59.8364 26.3636ZM65.1818 26.3636H63.7818C63.0182 26.3636 62.5091 25.8545 62.5091 25.0908C62.5091 24.3272 63.0182 23.8181 63.7818 23.8181H65.1818C65.9455 23.8181 66.4545 24.3272 66.4545 25.0908C66.4545 25.8545 65.9455 26.3636 65.1818 26.3636ZM70.6545 26.3636H69.2545C68.4909 26.3636 67.9818 25.8545 67.9818 25.0908C67.9818 24.3272 68.4909 23.8181 69.2545 23.8181H70.6545C71.4182 23.8181 71.9273 24.3272 71.9273 25.0908C71.9273 25.8545 71.4182 26.3636 70.6545 26.3636ZM53.7273 44.4363C53.3455 44.4363 53.0909 44.309 52.8364 44.0545L49.1455 40.3636C48.8909 40.109 48.7636 39.8545 48.7636 39.4727C48.7636 39.0908 48.8909 38.8363 49.1455 38.5818L52.9636 34.8908C53.4727 34.3818 54.2364 34.3818 54.7455 34.8908C55.2545 35.3999 55.2545 36.1636 54.7455 36.6727L51.8182 39.4727L54.6182 42.2727C55.1273 42.7818 55.1273 43.5454 54.6182 44.0545C54.3636 44.309 54.1091 44.4363 53.7273 44.4363ZM63.0182 44.4363C62.6364 44.4363 62.3818 44.309 62.1273 44.0545C61.6182 43.5454 61.6182 42.7818 62.1273 42.2727L65.8182 38.5818C66.3273 38.0727 67.0909 38.0727 67.6 38.5818C68.1091 39.0908 68.1091 39.8545 67.6 40.3636L63.9091 44.0545C63.6545 44.309 63.4 44.4363 63.0182 44.4363Z" fill="#114F93"/>
<path d="M66.7091 40.7454C66.4545 40.7454 66.0727 40.6182 65.8182 40.3636L62 36.6727C61.4909 36.1636 61.4909 35.4 62 34.8909C62.5091 34.3818 63.2727 34.3818 63.7818 34.8909L67.6 38.5818C68.1091 39.0909 68.1091 39.8545 67.6 40.3636C67.3454 40.6182 67.0909 40.7454 66.7091 40.7454ZM57.0364 45.7091H56.6545C56.0182 45.5818 55.6364 44.8182 55.7636 44.1818L58.4364 34.2545C58.5636 33.6182 59.3273 33.2363 59.9636 33.3636C60.6 33.4909 60.9818 34.2545 60.8545 34.8909L58.3091 44.8182C58.0545 45.3273 57.5454 45.7091 57.0364 45.7091ZM31.9636 51.4363H11.6C8.54544 51.4363 6.12726 49.0182 6.12726 45.9636C6.12726 42.9091 8.54544 40.4909 11.6 40.4909H31.9636C35.0182 40.4909 37.4364 42.9091 37.4364 45.9636C37.4364 49.0182 35.0182 51.4363 31.9636 51.4363ZM11.6 43.0363C10.0727 43.0363 8.67271 44.4363 8.67271 45.9636C8.67271 47.4909 10.0727 48.8909 11.6 48.8909H31.9636C33.4909 48.8909 34.8909 47.4909 34.8909 45.9636C34.8909 44.4363 33.4909 43.0363 31.9636 43.0363H11.6Z" fill="#114F93"/>
<path d="M24.7091 47.2364H13.3818C12.6182 47.2364 12.1091 46.7273 12.1091 45.9636C12.1091 45.2 12.6182 44.6909 13.3818 44.6909H24.7091C25.4727 44.6909 25.9818 45.2 25.9818 45.9636C25.9818 46.7273 25.4727 47.2364 24.7091 47.2364Z" fill="#114F93"/>
</svg>
